<svg width="43" height="42" viewBox="0 0 43 42" fill="none" xmlns="http://www.w3.org/2000/svg">
<path d="M39.6005 22.9529C40.5765 22.9529 41.3678 22.1617 41.3678 21.1856C41.3678 20.2095 40.5765 19.4183 39.6005 19.4183L39.6005 22.9529ZM27.1931 22.9529L39.6005 22.9529L39.6005 19.4183L27.1931 19.4183L27.1931 22.9529Z" fill="#377BBB"/>
<path d="M37.628 24.7202L41.4456 21.1856L37.628 17.651" stroke="#377BBB" stroke-width="1.76732" stroke-linecap="round"/>
<path d="M4.09635 19.4183C3.12029 19.4183 2.32903 20.2095 2.32903 21.1856C2.32903 22.1617 3.12028 22.9529 4.09635 22.9529L4.09635 19.4183ZM16.5037 19.4183L4.09635 19.4183L4.09635 22.9529L16.5037 22.9529L16.5037 19.4183Z" fill="#377BBB"/>
<path d="M6.06879 17.651L2.25114 21.1856L6.06879 24.7202" stroke="#377BBB" stroke-width="1.76732" stroke-linecap="round"/>
<path d="M23.6157 3.57557C23.6157 2.59951 22.8245 1.80826 21.8484 1.80826C20.8723 1.80826 20.0811 2.59951 20.0811 3.57557L23.6157 3.57557ZM23.6157 15.8837L23.6157 3.57557L20.0811 3.57557L20.0811 15.8837L23.6157 15.8837Z" fill="#377BBB"/>
<path d="M25.4115 5.53224L21.8484 1.74514L18.2853 5.53224" stroke="#377BBB" stroke-width="1.76732" stroke-linecap="round"/>
<path d="M20.0811 38.7956C20.0811 39.7717 20.8723 40.563 21.8484 40.563C22.8244 40.563 23.6157 39.7717 23.6157 38.7956L20.0811 38.7956ZM20.0811 26.4875L20.0811 38.7956L23.6157 38.7956L23.6157 26.4875L20.0811 26.4875Z" fill="#377BBB"/>
<path d="M18.2852 36.839L21.8484 40.6261L25.4115 36.839" stroke="#377BBB" stroke-width="1.76732" stroke-linecap="round"/>
<path d="M27.2002 21.1856C27.2002 24.1071 24.8108 26.4875 21.8484 26.4875C18.886 26.4875 16.4966 24.1071 16.4966 21.1856C16.4966 18.2641 18.886 15.8837 21.8484 15.8837C24.8108 15.8837 27.2002 18.2641 27.2002 21.1856Z" fill="#FDFDFD" stroke="#377BBB" stroke-width="1.76732"/>
</svg>
